<svg width="600" height="600" viewBox="0 0 600 600" fill="none" xmlns="http://www.w3.org/2000/svg">
<path fill-rule="evenodd" clip-rule="evenodd" d="M389.2 441.123C405.041 416.376 413.83 393.916 405.231 380.885C381.266 344.566 364.491 314.938 373.118 283.398C379.752 259.147 397.247 250.529 410.79 243.859C414.86 241.854 418.573 240.025 421.527 238C409.065 249.15 399.403 286.432 427.278 314.938C446.23 334.319 459.516 350.411 468.01 364.73C475.755 344.643 480 322.817 480 300C480 200.589 399.411 120 300 120C255.079 120 214.001 136.455 182.466 163.666C182.305 165.381 182.177 167.107 182.083 168.844C189.965 175.262 195 185.043 195 196C195 203.888 192.391 211.167 187.988 217.02C191.487 228.825 196.58 240.979 203.491 253.428C220.212 256.063 233 270.538 233 288C233 290.244 232.789 292.44 232.385 294.566C245.412 309.877 261.285 325.52 280.37 341.409C293.149 343.377 303.648 352.257 307.929 364.11C333.349 385.819 353.001 405.531 367.741 423.373C377.102 426.08 384.85 432.591 389.2 441.123Z" fill="url(#paint0_linear_27_2)"/>
<path fill-rule="evenodd" clip-rule="evenodd" d="M55.1071 227.043C56.7365 265.209 77.2323 313.469 130.354 374.091C185.935 437.52 205.723 482.709 218.78 512.526L218.781 512.529C220.586 516.651 222.262 520.479 223.887 524.021C230.524 538.493 235.318 545.741 242.707 550.29C250.411 555.032 262.895 558 287.829 558C311.038 558 334.426 554.504 353.251 547.171C372.239 539.775 384.901 529.196 389.957 516.083C393.663 506.472 394.017 493.553 387.148 476.382C390.291 471.665 392.319 466.141 392.857 460.188C434.256 539.505 358.103 570 287.829 570C230.851 570 224.419 555.314 207.822 517.418C194.853 487.806 175.677 444.022 121.329 382C-63.3926 171.195 121.463 87.1582 237.145 47.0174C247.841 43.3058 257.947 39.9694 267.113 36.9429C274.733 34.4271 281.705 32.1253 287.829 30C272.875 36.5295 257.401 45.8797 243.053 57.6701C211.029 83.9841 184.61 122.453 182.083 168.844C178.692 166.084 174.775 163.946 170.505 162.604C171.112 156.147 172.144 149.804 173.57 143.586C180.309 114.192 195.631 88.6559 214.764 67.9001C208.828 70.1644 202.8 72.5481 196.724 75.0638C160.365 90.1179 123.763 109.339 96.8264 134.463C70.1406 159.353 53.5016 189.437 55.1071 227.043ZM367.741 423.373C353.001 405.531 333.349 385.819 307.929 364.11C309.269 367.822 310 371.826 310 376C310 377.852 309.856 379.67 309.579 381.444C326.318 396.264 340.109 409.981 351.317 422.637C353.48 422.219 355.714 422 358 422C361.38 422 364.649 422.479 367.741 423.373ZM275 341C271.017 341 267.19 341.665 263.623 342.891C249.867 330.854 237.821 318.899 227.359 307.061C229.788 303.328 231.524 299.102 232.385 294.566C245.412 309.877 261.285 325.52 280.37 341.409C278.62 341.14 276.826 341 275 341ZM203.491 253.428C196.58 240.979 191.487 228.825 187.988 217.02C185.32 220.566 181.995 223.588 178.192 225.906C181.256 235.099 185.21 244.434 190.125 253.889C192.656 253.307 195.292 253 198 253C199.868 253 201.702 253.146 203.491 253.428Z" fill="url(#paint1_linear_27_2)"/>
<path fill-rule="evenodd" clip-rule="evenodd" d="M446.976 510.95C443.494 516.231 436.86 520.563 426.337 523.422C421.899 524.628 417.017 525.501 411.805 526.082C414.867 518.678 416.562 510.495 416.581 501.552C416.617 485.122 411.003 467.061 399.46 447.353C406.96 435.612 413.24 423.884 416.937 412.988C421.158 400.547 423.038 386.083 415.247 374.276C390.712 337.093 377.716 312.072 384.693 286.564C387.288 277.079 391.865 270.705 397.506 265.858C397.4 267.082 397.326 268.313 397.283 269.55C396.693 286.783 402.253 306.511 418.699 323.328C456.087 361.562 468 383.883 468 402.867C468 415.003 467.989 434.228 465.232 454.622C462.45 475.209 457.019 495.722 446.976 510.95ZM456.994 517.557C447.668 531.699 427.532 537.411 404.79 538.703C399.601 538.998 394.276 539.062 388.913 538.945C392.531 535.302 395.614 531.31 398.063 526.956C407.436 510.292 407.534 488.308 392.857 460.187C392.952 459.138 393 458.074 393 457C393 451.284 391.63 445.888 389.2 441.123C405.041 416.376 413.83 393.916 405.231 380.885C381.266 344.566 364.491 314.938 373.118 283.398C378.246 264.654 389.862 255.249 401.126 248.864C404.436 246.988 407.715 245.373 410.79 243.859C414.86 241.854 418.573 240.025 421.527 238C418.604 240.615 415.836 244.667 413.67 249.705C412.69 251.984 411.833 254.465 411.141 257.106C406.838 273.526 408.896 296.14 427.278 314.938C464.663 353.168 480 378.603 480 402.867C480 427.131 480 482.672 456.994 517.557Z" fill="url(#paint2_linear_27_2)"/>
<path fill-rule="evenodd" clip-rule="evenodd" d="M160 221C173.807 221 185 209.807 185 196C185 182.193 173.807 171 160 171C146.193 171 135 182.193 135 196C135 209.807 146.193 221 160 221ZM160 231C179.33 231 195 215.33 195 196C195 176.67 179.33 161 160 161C140.67 161 125 176.67 125 196C125 215.33 140.67 231 160 231Z" fill="url(#paint3_linear_27_2)"/>
<path fill-rule="evenodd" clip-rule="evenodd" d="M198 259C181.984 259 169 271.984 169 288C169 304.016 181.984 317 198 317C214.016 317 227 304.016 227 288C227 271.984 214.016 259 198 259ZM157 288C157 265.356 175.356 247 198 247C220.644 247 239 265.356 239 288C239 310.644 220.644 329 198 329C175.356 329 157 310.644 157 288Z" fill="url(#paint4_linear_27_2)"/>
<path fill-rule="evenodd" clip-rule="evenodd" d="M324 376C324 403.062 302.062 425 275 425C247.938 425 226 403.062 226 376C226 348.938 247.938 327 275 327C302.062 327 324 348.938 324 376ZM275 411C294.33 411 310 395.33 310 376C310 356.67 294.33 341 275 341C255.67 341 240 356.67 240 376C240 395.33 255.67 411 275 411Z" fill="url(#paint5_linear_27_2)"/>
<path fill-rule="evenodd" clip-rule="evenodd" d="M409 457C409 485.167 386.167 508 358 508C329.833 508 307 485.167 307 457C307 428.833 329.833 406 358 406C386.167 406 409 428.833 409 457ZM358 492C377.33 492 393 476.33 393 457C393 437.67 377.33 422 358 422C338.67 422 323 437.67 323 457C323 476.33 338.67 492 358 492Z" fill="url(#paint6_linear_27_2)"/>
<defs>
<linearGradient id="paint0_linear_27_2" x1="300" y1="120" x2="300" y2="480" gradientUnits="userSpaceOnUse">
<stop stop-color="#FF0000"/>
<stop offset="1" stop-color="#FF7A00"/>
</linearGradient>
<linearGradient id="paint1_linear_27_2" x1="223.791" y1="30" x2="325.5" y2="540.5" gradientUnits="userSpaceOnUse">
<stop stop-color="#FFE600"/>
<stop offset="0.494792" stop-color="#FFC700"/>
<stop offset="1" stop-color="#FFC700" stop-opacity="0"/>
</linearGradient>
<linearGradient id="paint2_linear_27_2" x1="388" y1="367" x2="432" y2="517.5" gradientUnits="userSpaceOnUse">
<stop stop-color="#FFE601"/>
<stop offset="1" stop-color="#FFE600" stop-opacity="0"/>
</linearGradient>
<linearGradient id="paint3_linear_27_2" x1="160" y1="161" x2="160" y2="231" gradientUnits="userSpaceOnUse">
<stop stop-color="#FFE600"/>
<stop offset="1" stop-color="#FFC700"/>
</linearGradient>
<linearGradient id="paint4_linear_27_2" x1="198" y1="253" x2="198" y2="323" gradientUnits="userSpaceOnUse">
<stop stop-color="#FFE600"/>
<stop offset="1" stop-color="#FFC700"/>
</linearGradient>
<linearGradient id="paint5_linear_27_2" x1="275" y1="341" x2="275" y2="411" gradientUnits="userSpaceOnUse">
<stop stop-color="#FFE600"/>
<stop offset="1" stop-color="#FFC700"/>
</linearGradient>
<linearGradient id="paint6_linear_27_2" x1="358" y1="422" x2="358" y2="492" gradientUnits="userSpaceOnUse">
<stop stop-color="#FFE600"/>
<stop offset="1" stop-color="#FFC700"/>
</linearGradient>
</defs>
</svg>
